G04*
G04 #@! TF.GenerationSoftware,Altium Limited,Altium Designer,21.5.1 (32)*
G04*
G04 Layer_Physical_Order=1*
G04 Layer_Color=255*
%FSLAX25Y25*%
%MOIN*%
G70*
G04*
G04 #@! TF.SameCoordinates,D1CED41D-7284-4930-815C-7774E47D36BB*
G04*
G04*
G04 #@! TF.FilePolarity,Positive*
G04*
G01*
G75*
%ADD13C,0.01000*%
%ADD14R,0.06102X0.06102*%
%ADD15R,0.08661X0.11024*%
%ADD16R,0.11024X0.11024*%
%ADD17R,0.05709X0.03740*%
%ADD18R,0.15590X0.15590*%
%ADD19R,0.01322X0.04583*%
G04:AMPARAMS|DCode=20|XSize=45.83mil|YSize=13.22mil|CornerRadius=6.61mil|HoleSize=0mil|Usage=FLASHONLY|Rotation=90.000|XOffset=0mil|YOffset=0mil|HoleType=Round|Shape=RoundedRectangle|*
%AMROUNDEDRECTD20*
21,1,0.04583,0.00000,0,0,90.0*
21,1,0.03260,0.01322,0,0,90.0*
1,1,0.01322,0.00000,0.01630*
1,1,0.01322,0.00000,-0.01630*
1,1,0.01322,0.00000,-0.01630*
1,1,0.01322,0.00000,0.01630*
%
%ADD20ROUNDEDRECTD20*%
G04:AMPARAMS|DCode=21|XSize=97.4mil|YSize=24.49mil|CornerRadius=12.25mil|HoleSize=0mil|Usage=FLASHONLY|Rotation=90.000|XOffset=0mil|YOffset=0mil|HoleType=Round|Shape=RoundedRectangle|*
%AMROUNDEDRECTD21*
21,1,0.09740,0.00000,0,0,90.0*
21,1,0.07291,0.02449,0,0,90.0*
1,1,0.02449,0.00000,0.03646*
1,1,0.02449,0.00000,-0.03646*
1,1,0.02449,0.00000,-0.03646*
1,1,0.02449,0.00000,0.03646*
%
%ADD21ROUNDEDRECTD21*%
%ADD22R,0.02449X0.09740*%
%ADD23R,0.06102X0.06102*%
%ADD31C,0.06181*%
%ADD32R,0.06181X0.06181*%
%ADD34C,0.06693*%
%ADD35C,0.11811*%
%ADD36C,0.05000*%
D13*
X60000Y182043D02*
X89000D01*
X29500Y184839D02*
X43300D01*
X46095Y182043D01*
X60000D01*
X225543Y250000D02*
Y272200D01*
X221457Y276287D02*
X225543Y272200D01*
X221457Y276287D02*
Y298500D01*
X180543Y250000D02*
Y272200D01*
X176457Y276287D02*
X180543Y272200D01*
X176457Y276287D02*
Y298500D01*
X20500Y36661D02*
X36300D01*
X41182Y41543D01*
X57000D01*
X133000D02*
X147300D01*
X150095Y44339D01*
X164500D01*
X191357Y245400D02*
X195957Y250000D01*
X175000Y245400D02*
X191357D01*
X173457Y246943D02*
X175000Y245400D01*
X173457Y246943D02*
Y250000D01*
X203043D02*
X208500Y244543D01*
X224087D01*
X225543Y246000D01*
Y250000D01*
X183543Y298500D02*
X195043Y310000D01*
X200043D01*
X206043Y304000D01*
Y298500D02*
Y304000D01*
X198957Y292000D02*
Y298500D01*
Y292000D02*
X203557Y287400D01*
X210357D01*
X221457Y298500D01*
X206043D02*
X210643Y303100D01*
X227443D01*
X228543Y302000D01*
Y298500D02*
Y302000D01*
X183600Y161661D02*
X202000D01*
X180261Y165000D02*
X183600Y161661D01*
X165059Y165000D02*
Y166532D01*
X159941Y236484D02*
X173457Y250000D01*
X175000Y202000D02*
X203043Y230043D01*
Y250000D01*
X208935Y106839D02*
X212000D01*
X199997Y97900D02*
X208935Y106839D01*
X180361Y97900D02*
X199997D01*
X179100Y99161D02*
X180361Y97900D01*
X162000Y99161D02*
X179100D01*
X291000Y294000D02*
Y300012D01*
X249300Y252300D02*
X291000Y294000D01*
X249300Y82600D02*
Y252300D01*
X215500Y48800D02*
X249300Y82600D01*
X214500Y42339D02*
X215500D01*
X214500Y34661D02*
X255600Y75761D01*
Y243161D02*
X256500D01*
X257323Y41567D02*
X293780Y78024D01*
Y188974D01*
X296000Y191194D01*
Y280988D01*
X170400Y207400D02*
X175000Y212000D01*
X170400Y182300D02*
Y207400D01*
Y182300D02*
X186800Y165900D01*
X205000D01*
X206400Y164500D01*
Y159000D02*
Y164500D01*
X205400Y158000D02*
X206400Y159000D01*
X165059Y158000D02*
Y160468D01*
X286457Y12433D02*
Y15200D01*
X301800Y30543D01*
Y188974D01*
X301000Y189774D02*
X301800Y188974D01*
X301000Y189774D02*
Y280988D01*
X209500Y212000D02*
X236900Y239400D01*
Y264800D01*
X284300Y312200D01*
X301800D01*
X306000Y308000D01*
Y300012D02*
Y308000D01*
X150200Y92500D02*
X197500D01*
X139400Y103300D02*
X150200Y92500D01*
X123400Y103300D02*
X139400D01*
X114700Y112000D02*
X123400Y103300D01*
X104300Y112000D02*
X114700D01*
X101600Y109300D02*
X104300Y112000D01*
X101600Y100561D02*
Y109300D01*
Y100561D02*
X103000Y99161D01*
X89000Y141500D02*
Y174957D01*
Y141500D02*
X123661Y106839D01*
X133000D01*
X106000D02*
X115600D01*
X123277Y99161D01*
X133000D01*
X159500Y36661D02*
X164500D01*
X144439Y21600D02*
X159500Y36661D01*
X84100Y21600D02*
X144439D01*
X64157Y41543D02*
X84100Y21600D01*
X57000Y41543D02*
X64157D01*
X301000Y300012D02*
Y306000D01*
X298900Y308100D02*
X301000Y306000D01*
X286300Y308100D02*
X298900D01*
X241500Y263300D02*
X286300Y308100D01*
X241500Y248500D02*
Y263300D01*
X291000Y257900D02*
Y280988D01*
X283939Y250839D02*
X291000Y257900D01*
X256500Y250839D02*
X283939D01*
X304000Y291400D02*
X306000Y289400D01*
X298000Y291400D02*
X304000D01*
X296000Y293400D02*
X298000Y291400D01*
X296000Y293400D02*
Y300012D01*
X140300Y180461D02*
Y182400D01*
X137000Y177161D02*
X140300Y180461D01*
X133500Y177161D02*
X137000D01*
X137839Y186404D02*
X144274D01*
X147800Y182878D01*
Y164600D02*
Y182878D01*
Y164600D02*
X152000Y160400D01*
X159941D02*
Y160468D01*
X60000Y140761D02*
X101600Y99161D01*
X60000Y140761D02*
Y174957D01*
X67000Y99161D02*
X83300D01*
X146800Y130900D02*
Y182900D01*
X143300Y186400D02*
X146800Y182900D01*
X133500Y184839D02*
X136200D01*
X244500Y157000D02*
Y160468D01*
X242000Y154500D02*
X244500Y157000D01*
X164000Y154500D02*
X242000D01*
X162500Y156000D02*
X164000Y154500D01*
X162500Y156000D02*
Y160468D01*
X24941Y101800D02*
Y104032D01*
X27500Y97968D02*
Y101800D01*
X20500Y44339D02*
X24700D01*
X26661Y46300D01*
X69400D01*
X86023Y29677D01*
X92236D01*
X94559Y32000D01*
Y35468D01*
X89441Y39900D02*
Y41532D01*
X91000Y39900D02*
X92000Y38900D01*
Y35468D02*
Y38900D01*
X89441Y35468D02*
Y37000D01*
X87200Y38000D02*
X88200Y37000D01*
X87200Y38000D02*
Y52600D01*
X90500Y55900D01*
Y60300D01*
X241941Y164300D02*
Y166532D01*
X243200Y164300D02*
X244500Y163000D01*
Y160468D02*
Y163000D01*
X241941Y160468D02*
Y162100D01*
X223161Y169339D02*
X230400Y162100D01*
X159941Y164300D02*
Y166532D01*
X161200Y164300D02*
X162500Y163000D01*
Y160468D02*
Y163000D01*
X195957Y250000D02*
Y253813D01*
X200000Y257857D01*
X210600D01*
X218457Y250000D01*
X103500Y306520D02*
X159941Y250079D01*
X183543Y284913D02*
Y298500D01*
X228543D02*
X249543Y319500D01*
X304000D01*
X308800Y314700D01*
Y293800D02*
Y314700D01*
X306000Y291000D02*
X308800Y293800D01*
X20700Y292720D02*
X35000Y307020D01*
X20700Y96000D02*
Y292720D01*
Y96000D02*
X22700Y94000D01*
X26500D01*
X27500Y95000D01*
Y97968D01*
Y91800D02*
X87623Y31677D01*
X90777D01*
X92000Y32900D01*
Y35468D01*
X297800Y73900D02*
Y113700D01*
X294331Y70431D02*
X297800Y73900D01*
X294331Y41567D02*
Y70431D01*
X133000Y99161D02*
X140700D01*
X153561Y86300D01*
X201900D01*
X207600Y92000D01*
Y102600D01*
X216500D01*
Y68260D02*
Y102600D01*
X195400Y47160D02*
X216500Y68260D01*
X195400Y22800D02*
Y47160D01*
Y22800D02*
X200000Y18200D01*
X208300D01*
X276000Y85900D01*
Y163300D01*
X279243Y166543D01*
X283500D01*
X89000Y174957D02*
X91443Y177400D01*
X93600D01*
Y186000D01*
X91391Y188209D02*
X93600Y186000D01*
X25146Y188209D02*
X91391D01*
X25146Y182000D02*
Y188209D01*
Y182000D02*
X26546Y180600D01*
X33900D01*
Y102400D02*
Y180600D01*
X31000Y99500D02*
X33900Y102400D01*
X30059Y97968D02*
Y99500D01*
X22700Y100900D02*
X24941Y97968D01*
X22700Y100900D02*
Y120300D01*
X28300Y125900D01*
X30059Y104032D02*
Y111000D01*
X28300Y112759D02*
X30059Y111000D01*
X28300Y112759D02*
Y125900D01*
X200000Y30000D02*
X204661Y34661D01*
X214500D01*
X246000Y171300D02*
X247059Y166532D01*
X232400Y171300D02*
X246000D01*
X230439Y169339D02*
X232400Y171300D01*
X67000Y106839D02*
X72000D01*
X74400Y109239D01*
Y116800D01*
X193161Y106839D02*
X197500Y102500D01*
X162000Y106839D02*
X193161D01*
X94559Y41532D02*
Y67218D01*
X147500Y104600D02*
X152939Y99161D01*
X162000D01*
X94559Y35468D02*
X95571Y34457D01*
X133000D01*
X23146Y210126D02*
X35000Y221980D01*
X23146Y180000D02*
Y210126D01*
Y180000D02*
X25984Y177161D01*
X29500D01*
X283500Y87200D02*
Y159457D01*
X210600Y14300D02*
X283500Y87200D01*
X192000Y14300D02*
X210600D01*
X188000Y18300D02*
X192000Y14300D01*
X188000Y18300D02*
Y34300D01*
X177961Y44339D02*
X188000Y34300D01*
X264200Y197900D02*
X288100Y174000D01*
Y160557D02*
Y174000D01*
X287000Y159457D02*
X288100Y160557D01*
X283500Y159457D02*
X287000D01*
X188939Y44339D02*
X212000Y67400D01*
Y99161D01*
X27500Y91800D02*
Y95000D01*
X24941Y101800D02*
X27500D01*
X89441Y39900D02*
X91000D01*
X159941Y166532D02*
Y236484D01*
Y250079D01*
Y164300D02*
X161200D01*
X183543Y284913D02*
X210600Y257857D01*
X241941Y164300D02*
X243200D01*
X306000Y280988D02*
Y289400D01*
Y291000D01*
X215500Y42339D02*
Y48800D01*
X30059Y99500D02*
X31000D01*
X255600Y75761D02*
Y243161D01*
X230400Y162100D02*
X241941D01*
X202000Y169339D02*
X223161D01*
X230439D01*
X165059Y165000D02*
X172000D01*
X180261D01*
X136200Y184839D02*
X136274D01*
X136200D02*
Y186400D01*
X137835D01*
X143300D01*
X152000Y160400D02*
X159941D01*
X136274Y184839D02*
X137835Y186400D01*
X137839Y186404D01*
X88200Y37000D02*
X89441D01*
X101600Y99161D02*
X103000D01*
X106000D01*
X164500Y44339D02*
X177961D01*
X188939D01*
X165059Y158000D02*
X205400D01*
X310002Y92499D02*
Y88500D01*
X316000D01*
Y92499D01*
X313001Y88500D02*
Y90499D01*
X312001Y94498D02*
X316000D01*
X314001D01*
X313001Y95498D01*
X312001Y96497D01*
Y97497D01*
X316000Y101496D02*
Y103495D01*
X315000Y104495D01*
X313001D01*
X312001Y103495D01*
Y101496D01*
X313001Y100496D01*
X315000D01*
X316000Y101496D01*
Y106494D02*
Y109493D01*
X315000Y110493D01*
X314001Y109493D01*
Y107494D01*
X313001Y106494D01*
X312001Y107494D01*
Y110493D01*
X310002Y118490D02*
X316000D01*
X314001D01*
X310002Y122489D01*
X313001Y119490D01*
X316000Y122489D01*
X312001Y124488D02*
X315000D01*
X316000Y125488D01*
Y128487D01*
X312001D01*
X316000Y130486D02*
Y132486D01*
Y131486D01*
X312001D01*
Y130486D01*
X316000Y135485D02*
X310002D01*
X314001D02*
X312001Y138484D01*
X314001Y135485D02*
X316000Y138484D01*
Y144482D02*
Y142482D01*
X315000Y141483D01*
X313001D01*
X312001Y142482D01*
Y144482D01*
X313001Y145482D01*
X314001D01*
Y141483D01*
X316000Y147481D02*
Y149480D01*
Y148481D01*
X310002D01*
Y147481D01*
X313001Y158477D02*
Y162476D01*
X316000Y167474D02*
Y165475D01*
X315000Y164475D01*
X313001D01*
X312001Y165475D01*
Y167474D01*
X313001Y168474D01*
X314001D01*
Y164475D01*
X316000Y170474D02*
X310002D01*
X314001D02*
X312001Y173472D01*
X314001Y170474D02*
X316000Y173472D01*
X311002Y176471D02*
X310002Y177471D01*
Y179471D01*
X311002Y180470D01*
X312001D01*
X313001Y179471D01*
Y178471D01*
Y179471D01*
X314001Y180470D01*
X315000D01*
X316000Y179471D01*
Y177471D01*
X315000Y176471D01*
X316000Y186468D02*
Y182470D01*
X312001Y186468D01*
X311002D01*
X310002Y185469D01*
Y183469D01*
X311002Y182470D01*
X315000Y188468D02*
X316000Y189467D01*
Y191467D01*
X315000Y192466D01*
X311002D01*
X310002Y191467D01*
Y189467D01*
X311002Y188468D01*
X312001D01*
X313001Y189467D01*
Y192466D01*
X310002Y198464D02*
X311002Y196465D01*
X313001Y194466D01*
X315000D01*
X316000Y195465D01*
Y197465D01*
X315000Y198464D01*
X314001D01*
X313001Y197465D01*
Y194466D01*
D14*
X283500Y166543D02*
D03*
Y159457D02*
D03*
X133000Y34457D02*
D03*
Y41543D02*
D03*
X57000Y34457D02*
D03*
Y41543D02*
D03*
X89000Y174957D02*
D03*
Y182043D02*
D03*
X60000Y174957D02*
D03*
Y182043D02*
D03*
D15*
X286457Y12433D02*
D03*
X294331Y41567D02*
D03*
D16*
X257323D02*
D03*
D17*
X214500Y34661D02*
D03*
Y42339D02*
D03*
X202000Y161661D02*
D03*
Y169339D02*
D03*
X29500Y177161D02*
D03*
Y184839D02*
D03*
X106000Y99161D02*
D03*
Y106839D02*
D03*
X67000Y99161D02*
D03*
Y106839D02*
D03*
X256500Y243161D02*
D03*
Y250839D02*
D03*
X164500Y36661D02*
D03*
Y44339D02*
D03*
X20500Y36661D02*
D03*
Y44339D02*
D03*
X212000Y99161D02*
D03*
Y106839D02*
D03*
X162000Y99161D02*
D03*
Y106839D02*
D03*
X133000Y99161D02*
D03*
Y106839D02*
D03*
X133500Y177161D02*
D03*
Y184839D02*
D03*
D18*
X35000Y264500D02*
D03*
X103500Y264000D02*
D03*
D19*
X24941Y97968D02*
D03*
X89441Y35468D02*
D03*
X241941Y160468D02*
D03*
X159941D02*
D03*
D20*
X27500Y97968D02*
D03*
X30059D02*
D03*
Y104032D02*
D03*
X24941D02*
D03*
X92000Y35468D02*
D03*
X94559D02*
D03*
Y41532D02*
D03*
X89441D02*
D03*
X244500Y160468D02*
D03*
X247059D02*
D03*
Y166532D02*
D03*
X241941D02*
D03*
X162500Y160468D02*
D03*
X165059D02*
D03*
Y166532D02*
D03*
X159941D02*
D03*
D21*
X291000Y300012D02*
D03*
X296000D02*
D03*
X301000D02*
D03*
X306000D02*
D03*
Y280988D02*
D03*
X301000D02*
D03*
X296000D02*
D03*
D22*
X291000D02*
D03*
D23*
X221457Y298500D02*
D03*
X228543D02*
D03*
X198957D02*
D03*
X206043D02*
D03*
X176457D02*
D03*
X183543D02*
D03*
X218457Y250000D02*
D03*
X225543D02*
D03*
X195957D02*
D03*
X203043D02*
D03*
X173457D02*
D03*
X180543D02*
D03*
D31*
X209500Y212000D02*
D03*
X192500D02*
D03*
X175000D02*
D03*
X241500Y248500D02*
D03*
X200000Y40000D02*
D03*
X197500Y102500D02*
D03*
X119000Y180500D02*
D03*
D32*
X209500Y202000D02*
D03*
X192500D02*
D03*
X175000D02*
D03*
X241500Y238500D02*
D03*
X200000Y30000D02*
D03*
X197500Y92500D02*
D03*
X119000Y170500D02*
D03*
D34*
X290000Y27000D02*
D03*
X262441D02*
D03*
D35*
X35000Y307020D02*
D03*
Y221980D02*
D03*
X103500Y221480D02*
D03*
Y306520D02*
D03*
D36*
X140300Y182400D02*
D03*
X83300Y99161D02*
D03*
X146800Y130900D02*
D03*
X90500Y60300D02*
D03*
X297800Y113700D02*
D03*
X28300Y125900D02*
D03*
X74400Y116800D02*
D03*
X172000Y165000D02*
D03*
X94559Y67218D02*
D03*
X147500Y104600D02*
D03*
X264200Y197900D02*
D03*
M02*
