G04*
G04 #@! TF.GenerationSoftware,Altium Limited,Altium Designer,21.5.1 (32)*
G04*
G04 Layer_Color=65535*
%FSLAX25Y25*%
%MOIN*%
G70*
G04*
G04 #@! TF.SameCoordinates,D1CED41D-7284-4930-815C-7774E47D36BB*
G04*
G04*
G04 #@! TF.FilePolarity,Positive*
G04*
G01*
G75*
%ADD10C,0.00787*%
%ADD11C,0.00984*%
%ADD12C,0.00500*%
%ADD13C,0.01000*%
D10*
X307323Y39992D02*
G03*
X307323Y39992I-394J0D01*
G01*
X211744Y38008D02*
Y38992D01*
X217256Y38008D02*
Y38992D01*
X199244Y165008D02*
Y165992D01*
X204756Y165008D02*
Y165992D01*
X26744Y180508D02*
Y181492D01*
X32256Y180508D02*
Y181492D01*
X103244Y102508D02*
Y103492D01*
X108756Y102508D02*
Y103492D01*
X64244Y102508D02*
Y103492D01*
X69756Y102508D02*
Y103492D01*
X32421Y96866D02*
Y105134D01*
X22579Y96866D02*
Y105134D01*
X288854Y287827D02*
X308146D01*
Y293173D01*
X288854D02*
X308146D01*
X288854Y287827D02*
Y293173D01*
X204244Y196252D02*
X214756D01*
Y217748D01*
X204244D02*
X214756D01*
X204244Y196252D02*
Y217748D01*
X187244Y196252D02*
X197756D01*
Y217748D01*
X187244D02*
X197756D01*
X187244Y196252D02*
Y217748D01*
X169744Y196252D02*
X180256D01*
Y217748D01*
X169744D02*
X180256D01*
X169744Y196252D02*
Y217748D01*
X253744Y246508D02*
Y247492D01*
X259256Y246508D02*
Y247492D01*
X236244Y232752D02*
X246756D01*
Y254248D01*
X236244D02*
X246756D01*
X236244Y232752D02*
Y254248D01*
X194744Y24252D02*
X205256D01*
Y45748D01*
X194744D02*
X205256D01*
X194744Y24252D02*
Y45748D01*
X161744Y40008D02*
Y40992D01*
X167256Y40008D02*
Y40992D01*
X96921Y34366D02*
Y42634D01*
X87079Y34366D02*
Y42634D01*
X17744Y40008D02*
Y40992D01*
X23256Y40008D02*
Y40992D01*
X209244Y102508D02*
Y103492D01*
X214756Y102508D02*
Y103492D01*
X192244Y86752D02*
X202756D01*
Y108248D01*
X192244D02*
X202756D01*
X192244Y86752D02*
Y108248D01*
X159244Y102508D02*
Y103492D01*
X164756Y102508D02*
Y103492D01*
X130244Y102508D02*
Y103492D01*
X135756Y102508D02*
Y103492D01*
X249421Y159366D02*
Y167634D01*
X239579Y159366D02*
Y167634D01*
X167421Y159366D02*
Y167634D01*
X157579Y159366D02*
Y167634D01*
X130744Y180508D02*
Y181492D01*
X136256Y180508D02*
Y181492D01*
X113744Y164752D02*
X124256D01*
Y186248D01*
X113744D02*
X124256D01*
X113744Y164752D02*
Y186248D01*
D11*
X25433Y93413D02*
G03*
X25433Y93413I-492J0D01*
G01*
X291295Y272082D02*
G03*
X291295Y272082I-492J0D01*
G01*
X209992Y194697D02*
G03*
X209992Y194697I-492J0D01*
G01*
X192992D02*
G03*
X192992Y194697I-492J0D01*
G01*
X175492D02*
G03*
X175492Y194697I-492J0D01*
G01*
X241992Y231197D02*
G03*
X241992Y231197I-492J0D01*
G01*
X200492Y22697D02*
G03*
X200492Y22697I-492J0D01*
G01*
X89933Y30913D02*
G03*
X89933Y30913I-492J0D01*
G01*
X197992Y85197D02*
G03*
X197992Y85197I-492J0D01*
G01*
X242433Y155913D02*
G03*
X242433Y155913I-492J0D01*
G01*
X160433D02*
G03*
X160433Y155913I-492J0D01*
G01*
X119492Y163197D02*
G03*
X119492Y163197I-492J0D01*
G01*
D12*
X303780Y36843D02*
Y38811D01*
Y17157D02*
Y36843D01*
Y15189D02*
Y17157D01*
X291575Y15189D02*
X303780D01*
X246693D02*
X281339D01*
X246693D02*
Y38811D01*
X299449D02*
X303780D01*
X263622D02*
X289213D01*
X246693D02*
X251024D01*
X303780Y17157D02*
X313622D01*
Y36843D01*
X303780D02*
X313622D01*
X45000Y305996D02*
X65000D01*
Y223004D02*
Y305996D01*
X45000Y223004D02*
X65000D01*
X5000D02*
X25000D01*
X5000Y305996D02*
X25000D01*
X5000Y223004D02*
Y305996D01*
X73500Y222504D02*
X93500D01*
X73500D02*
Y305496D01*
X93500D01*
X113500D02*
X133500D01*
X113500Y222504D02*
X133500D01*
Y305496D01*
D13*
X287500Y316198D02*
Y311200D01*
X288500Y310200D01*
X290499D01*
X291499Y311200D01*
Y316198D01*
X297497Y310200D02*
X293498D01*
X297497Y314199D01*
Y315198D01*
X296497Y316198D01*
X294498D01*
X293498Y315198D01*
X227999Y18006D02*
X222001D01*
Y21004D01*
X223001Y22004D01*
X225000D01*
X226000Y21004D01*
Y18006D01*
Y20005D02*
X227999Y22004D01*
X229999Y26003D02*
Y27003D01*
X228999Y28002D01*
X224001D01*
Y25003D01*
X225000Y24004D01*
X227000D01*
X227999Y25003D01*
Y28002D01*
Y30002D02*
X224001Y34000D01*
X227999Y39998D02*
Y36000D01*
X224001Y39998D01*
X223001D01*
X222001Y38999D01*
Y36999D01*
X223001Y36000D01*
X228999Y41998D02*
Y45996D01*
X227999Y47996D02*
Y50995D01*
X227000Y51995D01*
X226000Y50995D01*
Y48996D01*
X225000Y47996D01*
X224001Y48996D01*
Y51995D01*
X253900Y258500D02*
Y264498D01*
X256899D01*
X257899Y263498D01*
Y261499D01*
X256899Y260499D01*
X253900D01*
X255899D02*
X257899Y258500D01*
X261897Y256501D02*
X262897D01*
X263897Y257500D01*
Y262499D01*
X260898D01*
X259898Y261499D01*
Y259500D01*
X260898Y258500D01*
X263897D01*
X265896D02*
X269895Y262499D01*
X275893Y258500D02*
X271894D01*
X275893Y262499D01*
Y263498D01*
X274893Y264498D01*
X272894D01*
X271894Y263498D01*
X277892Y257500D02*
X281891D01*
X284890Y258500D02*
Y263498D01*
Y261499D01*
X283890D01*
X285890D01*
X284890D01*
Y263498D01*
X285890Y264498D01*
X13499Y118496D02*
Y120495D01*
X12499Y121494D01*
X8500D01*
X7501Y120495D01*
Y118496D01*
X8500Y117496D01*
X12499D01*
X13499Y118496D01*
X5501Y115496D02*
X11499D01*
Y112497D01*
X10500Y111498D01*
X8500D01*
X7501Y112497D01*
Y115496D01*
Y109498D02*
X11499D01*
X13499Y107499D01*
X11499Y105500D01*
X7501D01*
X10500D01*
Y109498D01*
X7501Y103500D02*
X11499D01*
Y102501D01*
X10500Y101501D01*
X7501D01*
X10500D01*
X11499Y100501D01*
X10500Y99502D01*
X7501D01*
X5501Y97502D02*
X11499D01*
Y94503D01*
X10500Y93503D01*
X8500D01*
X7501Y94503D01*
Y97502D01*
Y88505D02*
X13499D01*
X10500Y91504D01*
Y87506D01*
X90699Y55598D02*
X88700D01*
X87700Y54598D01*
Y50600D01*
X88700Y49600D01*
X90699D01*
X91699Y50600D01*
Y54598D01*
X90699Y55598D01*
X93698Y47601D02*
Y53599D01*
X96697D01*
X97697Y52599D01*
Y50600D01*
X96697Y49600D01*
X93698D01*
X99696D02*
Y53599D01*
X101696Y55598D01*
X103695Y53599D01*
Y49600D01*
Y52599D01*
X99696D01*
X105694Y49600D02*
Y53599D01*
X106694D01*
X107694Y52599D01*
Y49600D01*
Y52599D01*
X108693Y53599D01*
X109693Y52599D01*
Y49600D01*
X111692Y47601D02*
Y53599D01*
X114691D01*
X115691Y52599D01*
Y50600D01*
X114691Y49600D01*
X111692D01*
X117690Y54598D02*
X118690Y55598D01*
X120689D01*
X121689Y54598D01*
Y53599D01*
X120689Y52599D01*
X119690D01*
X120689D01*
X121689Y51599D01*
Y50600D01*
X120689Y49600D01*
X118690D01*
X117690Y50600D01*
X161199Y180598D02*
X159200D01*
X158200Y179598D01*
Y175600D01*
X159200Y174600D01*
X161199D01*
X162199Y175600D01*
Y179598D01*
X161199Y180598D01*
X164198Y172601D02*
Y178599D01*
X167197D01*
X168197Y177599D01*
Y175600D01*
X167197Y174600D01*
X164198D01*
X170196D02*
Y178599D01*
X172195Y180598D01*
X174195Y178599D01*
Y174600D01*
Y177599D01*
X170196D01*
X176194Y174600D02*
Y178599D01*
X177194D01*
X178193Y177599D01*
Y174600D01*
Y177599D01*
X179193Y178599D01*
X180193Y177599D01*
Y174600D01*
X182192Y172601D02*
Y178599D01*
X185191D01*
X186191Y177599D01*
Y175600D01*
X185191Y174600D01*
X182192D01*
X192189D02*
X188190D01*
X192189Y178599D01*
Y179598D01*
X191189Y180598D01*
X189190D01*
X188190Y179598D01*
X243199Y180598D02*
X241200D01*
X240200Y179598D01*
Y175600D01*
X241200Y174600D01*
X243199D01*
X244199Y175600D01*
Y179598D01*
X243199Y180598D01*
X246198Y172601D02*
Y178599D01*
X249197D01*
X250197Y177599D01*
Y175600D01*
X249197Y174600D01*
X246198D01*
X252196D02*
Y178599D01*
X254195Y180598D01*
X256195Y178599D01*
Y174600D01*
Y177599D01*
X252196D01*
X258194Y174600D02*
Y178599D01*
X259194D01*
X260193Y177599D01*
Y174600D01*
Y177599D01*
X261193Y178599D01*
X262193Y177599D01*
Y174600D01*
X264192Y172601D02*
Y178599D01*
X267191D01*
X268191Y177599D01*
Y175600D01*
X267191Y174600D01*
X264192D01*
X270190D02*
X272190D01*
X271190D01*
Y180598D01*
X270190Y179598D01*
X13499Y170004D02*
X7501D01*
X13499Y174002D01*
X7501D01*
X13499Y182000D02*
X7501D01*
Y184999D01*
X8501Y185998D01*
X10500D01*
X11500Y184999D01*
Y182000D01*
Y183999D02*
X13499Y185998D01*
X8501Y187998D02*
X7501Y188997D01*
Y190997D01*
X8501Y191997D01*
X9500D01*
X10500Y190997D01*
Y189997D01*
Y190997D01*
X11500Y191997D01*
X12499D01*
X13499Y190997D01*
Y188997D01*
X12499Y187998D01*
X130400Y112500D02*
Y118498D01*
X134399Y112500D01*
Y118498D01*
X142396Y112500D02*
Y118498D01*
X145395D01*
X146395Y117498D01*
Y115499D01*
X145395Y114499D01*
X142396D01*
X144395D02*
X146395Y112500D01*
X152393D02*
X148394D01*
X152393Y116499D01*
Y117498D01*
X151393Y118498D01*
X149394D01*
X148394Y117498D01*
X89001Y110497D02*
X94999D01*
X89001Y106498D01*
X94999D01*
X89001Y98501D02*
X94999D01*
Y95502D01*
X93999Y94502D01*
X92000D01*
X91000Y95502D01*
Y98501D01*
Y96501D02*
X89001Y94502D01*
Y92503D02*
Y90503D01*
Y91503D01*
X94999D01*
X93999Y92503D01*
X296999Y139007D02*
X291001D01*
X296999Y143006D01*
X291001D01*
X296999Y146005D02*
Y148004D01*
X295999Y149004D01*
X294000D01*
X293000Y148004D01*
Y146005D01*
X294000Y145005D01*
X295999D01*
X296999Y146005D01*
X292001Y152003D02*
X293000D01*
Y151003D01*
Y153002D01*
Y152003D01*
X295999D01*
X296999Y153002D01*
X293000Y160000D02*
Y157001D01*
X294000Y156001D01*
X295999D01*
X296999Y157001D01*
Y160000D01*
X291001Y161999D02*
X296999D01*
X294000D01*
X293000Y162999D01*
Y164999D01*
X294000Y165998D01*
X296999D01*
X292001Y177994D02*
X291001Y176995D01*
Y174995D01*
X292001Y173996D01*
X295999D01*
X296999Y174995D01*
Y176995D01*
X295999Y177994D01*
X296999Y179994D02*
Y181993D01*
Y180993D01*
X291001D01*
X292001Y179994D01*
X55800Y190300D02*
Y196298D01*
X59799Y190300D01*
Y196298D01*
X71795Y195298D02*
X70795Y196298D01*
X68796D01*
X67796Y195298D01*
Y191300D01*
X68796Y190300D01*
X70795D01*
X71795Y191300D01*
X73794Y195298D02*
X74794Y196298D01*
X76793D01*
X77793Y195298D01*
Y194299D01*
X76793Y193299D01*
X75793D01*
X76793D01*
X77793Y192299D01*
Y191300D01*
X76793Y190300D01*
X74794D01*
X73794Y191300D01*
X84800Y190300D02*
Y196298D01*
X88799Y190300D01*
Y196298D01*
X100795Y195298D02*
X99795Y196298D01*
X97796D01*
X96796Y195298D01*
Y191300D01*
X97796Y190300D01*
X99795D01*
X100795Y191300D01*
X106793Y190300D02*
X102794D01*
X106793Y194299D01*
Y195298D01*
X105793Y196298D01*
X103794D01*
X102794Y195298D01*
X250599Y57198D02*
X248599D01*
X249599D01*
Y52200D01*
X248599Y51200D01*
X247600D01*
X246600Y52200D01*
X253598Y55199D02*
X255597D01*
X256597Y54199D01*
Y51200D01*
X253598D01*
X252598Y52200D01*
X253598Y53199D01*
X256597D01*
X262595Y55199D02*
X259596D01*
X258596Y54199D01*
Y52200D01*
X259596Y51200D01*
X262595D01*
X264594D02*
Y57198D01*
Y53199D02*
X267593Y55199D01*
X264594Y53199D02*
X267593Y51200D01*
X270592D02*
X272592D01*
X271592D01*
Y57198D01*
X270592Y56198D01*
X192500Y117998D02*
Y112000D01*
Y114999D01*
X196499D01*
Y117998D01*
Y112000D01*
X198498Y117998D02*
X202497D01*
Y116998D01*
X198498Y113000D01*
Y112000D01*
X114000Y195998D02*
Y190000D01*
Y192999D01*
X117999D01*
Y195998D01*
Y190000D01*
X123997Y195998D02*
X121997Y194998D01*
X119998Y192999D01*
Y191000D01*
X120998Y190000D01*
X122997D01*
X123997Y191000D01*
Y191999D01*
X122997Y192999D01*
X119998D01*
X170000Y227498D02*
Y221500D01*
Y224499D01*
X173999D01*
Y227498D01*
Y221500D01*
X179997Y227498D02*
X175998D01*
Y224499D01*
X177997Y225499D01*
X178997D01*
X179997Y224499D01*
Y222500D01*
X178997Y221500D01*
X176998D01*
X175998Y222500D01*
X195000Y55498D02*
Y49500D01*
Y52499D01*
X198999D01*
Y55498D01*
Y49500D01*
X203997D02*
Y55498D01*
X200998Y52499D01*
X204997D01*
X236500Y263998D02*
Y258000D01*
Y260999D01*
X240499D01*
Y263998D01*
Y258000D01*
X242498Y262998D02*
X243498Y263998D01*
X245497D01*
X246497Y262998D01*
Y261999D01*
X245497Y260999D01*
X244497D01*
X245497D01*
X246497Y259999D01*
Y259000D01*
X245497Y258000D01*
X243498D01*
X242498Y259000D01*
X204500Y227498D02*
Y221500D01*
Y224499D01*
X208499D01*
Y227498D01*
Y221500D01*
X214497D02*
X210498D01*
X214497Y225499D01*
Y226498D01*
X213497Y227498D01*
X211498D01*
X210498Y226498D01*
X187500Y227498D02*
Y221500D01*
Y224499D01*
X191499D01*
Y227498D01*
Y221500D01*
X193498D02*
X195497D01*
X194498D01*
Y227498D01*
X193498Y226498D01*
X130900Y196498D02*
Y190500D01*
X133899D01*
X134899Y191500D01*
Y195498D01*
X133899Y196498D01*
X130900D01*
X136898Y190500D02*
Y196498D01*
X139897D01*
X140897Y195498D01*
Y193499D01*
X139897Y192499D01*
X136898D01*
X138897D02*
X140897Y190500D01*
X142896Y196498D02*
Y190500D01*
X146895D01*
X154892D02*
Y196498D01*
X157891D01*
X158891Y195498D01*
Y193499D01*
X157891Y192499D01*
X154892D01*
X156892D02*
X158891Y190500D01*
X160890Y195498D02*
X161890Y196498D01*
X163889D01*
X164889Y195498D01*
Y194499D01*
X163889Y193499D01*
X162890D01*
X163889D01*
X164889Y192499D01*
Y191500D01*
X163889Y190500D01*
X161890D01*
X160890Y191500D01*
X186005Y151999D02*
Y146001D01*
X189005D01*
X190004Y147001D01*
Y150999D01*
X189005Y151999D01*
X186005D01*
X192004Y146001D02*
Y151999D01*
X195003D01*
X196002Y150999D01*
Y149000D01*
X195003Y148000D01*
X192004D01*
X194003D02*
X196002Y146001D01*
X198002Y151999D02*
Y146001D01*
X202000D01*
X209998D02*
Y151999D01*
X212997D01*
X213997Y150999D01*
Y149000D01*
X212997Y148000D01*
X209998D01*
X211997D02*
X213997Y146001D01*
X219994D02*
X215996D01*
X219994Y150000D01*
Y150999D01*
X218995Y151999D01*
X216996D01*
X215996Y150999D01*
X58999Y120995D02*
X53001D01*
Y117996D01*
X54001Y116996D01*
X57999D01*
X58999Y117996D01*
Y120995D01*
X53001Y114997D02*
X58999D01*
Y111998D01*
X57999Y110998D01*
X56000D01*
X55000Y111998D01*
Y114997D01*
Y112997D02*
X53001Y110998D01*
X58999Y108999D02*
X53001D01*
Y105000D01*
Y97003D02*
X58999D01*
Y94003D01*
X57999Y93004D01*
X56000D01*
X55000Y94003D01*
Y97003D01*
Y95003D02*
X53001Y93004D01*
Y91005D02*
Y89005D01*
Y90005D01*
X58999D01*
X57999Y91005D01*
X218199Y263198D02*
X217199Y264198D01*
X215200D01*
X214200Y263198D01*
Y259200D01*
X215200Y258200D01*
X217199D01*
X218199Y259200D01*
X224197Y264198D02*
X222197Y263198D01*
X220198Y261199D01*
Y259200D01*
X221198Y258200D01*
X223197D01*
X224197Y259200D01*
Y260199D01*
X223197Y261199D01*
X220198D01*
X195699Y263198D02*
X194699Y264198D01*
X192700D01*
X191700Y263198D01*
Y259200D01*
X192700Y258200D01*
X194699D01*
X195699Y259200D01*
X201697Y264198D02*
X197698D01*
Y261199D01*
X199697Y262199D01*
X200697D01*
X201697Y261199D01*
Y259200D01*
X200697Y258200D01*
X198698D01*
X197698Y259200D01*
X173199Y263198D02*
X172199Y264198D01*
X170200D01*
X169200Y263198D01*
Y259200D01*
X170200Y258200D01*
X172199D01*
X173199Y259200D01*
X178197Y258200D02*
Y264198D01*
X175198Y261199D01*
X179197D01*
X221199Y311698D02*
X220199Y312698D01*
X218200D01*
X217200Y311698D01*
Y307700D01*
X218200Y306700D01*
X220199D01*
X221199Y307700D01*
X223198Y311698D02*
X224198Y312698D01*
X226197D01*
X227197Y311698D01*
Y310699D01*
X226197Y309699D01*
X225197D01*
X226197D01*
X227197Y308699D01*
Y307700D01*
X226197Y306700D01*
X224198D01*
X223198Y307700D01*
X198699Y311698D02*
X197699Y312698D01*
X195700D01*
X194700Y311698D01*
Y307700D01*
X195700Y306700D01*
X197699D01*
X198699Y307700D01*
X204697Y306700D02*
X200698D01*
X204697Y310699D01*
Y311698D01*
X203697Y312698D01*
X201698D01*
X200698Y311698D01*
X176199D02*
X175199Y312698D01*
X173200D01*
X172200Y311698D01*
Y307700D01*
X173200Y306700D01*
X175199D01*
X176199Y307700D01*
X178198Y306700D02*
X180197D01*
X179198D01*
Y312698D01*
X178198Y311698D01*
X6503Y217499D02*
Y211501D01*
X9502D01*
X10501Y212501D01*
Y213500D01*
X9502Y214500D01*
X6503D01*
X9502D01*
X10501Y215500D01*
Y216499D01*
X9502Y217499D01*
X6503D01*
X12501D02*
X16499D01*
X14500D01*
Y211501D01*
X22497D02*
X18499D01*
X22497Y215500D01*
Y216499D01*
X21498Y217499D01*
X19498D01*
X18499Y216499D01*
X75002Y316499D02*
Y310501D01*
X78001D01*
X79001Y311501D01*
Y312500D01*
X78001Y313500D01*
X75002D01*
X78001D01*
X79001Y314500D01*
Y315499D01*
X78001Y316499D01*
X75002D01*
X81000D02*
X84999D01*
X83000D01*
Y310501D01*
X86998D02*
X88998D01*
X87998D01*
Y316499D01*
X86998Y315499D01*
X159400Y118498D02*
Y112500D01*
X162399D01*
X163399Y113500D01*
Y114499D01*
X162399Y115499D01*
X159400D01*
X162399D01*
X163399Y116499D01*
Y117498D01*
X162399Y118498D01*
X159400D01*
X165398Y112500D02*
Y118498D01*
X168397D01*
X169397Y117498D01*
Y115499D01*
X168397Y114499D01*
X165398D01*
X177394Y112500D02*
Y118498D01*
X180393D01*
X181393Y117498D01*
Y115499D01*
X180393Y114499D01*
X177394D01*
X179393D02*
X181393Y112500D01*
X184392D02*
Y117498D01*
Y115499D01*
X183392D01*
X185392D01*
X184392D01*
Y117498D01*
X185392Y118498D01*
X209400D02*
Y112500D01*
X212399D01*
X213399Y113500D01*
Y114499D01*
X212399Y115499D01*
X209400D01*
X212399D01*
X213399Y116499D01*
Y117498D01*
X212399Y118498D01*
X209400D01*
X215398Y112500D02*
Y118498D01*
X218397D01*
X219397Y117498D01*
Y115499D01*
X218397Y114499D01*
X215398D01*
X227394Y112500D02*
Y118498D01*
X230393D01*
X231393Y117498D01*
Y115499D01*
X230393Y114499D01*
X227394D01*
X229394D02*
X231393Y112500D01*
X233392Y117498D02*
X234392Y118498D01*
X236391D01*
X237391Y117498D01*
Y116499D01*
X236391Y115499D01*
X235392D01*
X236391D01*
X237391Y114499D01*
Y113500D01*
X236391Y112500D01*
X234392D01*
X233392Y113500D01*
X17900Y55998D02*
Y50000D01*
X20899D01*
X21899Y51000D01*
Y51999D01*
X20899Y52999D01*
X17900D01*
X20899D01*
X21899Y53999D01*
Y54998D01*
X20899Y55998D01*
X17900D01*
X23898Y50000D02*
Y55998D01*
X26897D01*
X27897Y54998D01*
Y52999D01*
X26897Y51999D01*
X23898D01*
X35894Y50000D02*
Y55998D01*
X38893D01*
X39893Y54998D01*
Y52999D01*
X38893Y51999D01*
X35894D01*
X37894D02*
X39893Y50000D01*
X45891D02*
X41892D01*
X45891Y53999D01*
Y54998D01*
X44891Y55998D01*
X42892D01*
X41892Y54998D01*
X161900Y55998D02*
Y50000D01*
X164899D01*
X165899Y51000D01*
Y51999D01*
X164899Y52999D01*
X161900D01*
X164899D01*
X165899Y53999D01*
Y54998D01*
X164899Y55998D01*
X161900D01*
X167898Y50000D02*
Y55998D01*
X170897D01*
X171897Y54998D01*
Y52999D01*
X170897Y51999D01*
X167898D01*
X179894Y50000D02*
Y55998D01*
X182893D01*
X183893Y54998D01*
Y52999D01*
X182893Y51999D01*
X179894D01*
X181894D02*
X183893Y50000D01*
X185892D02*
X187892D01*
X186892D01*
Y55998D01*
X185892Y54998D01*
X52800Y55798D02*
Y49800D01*
X55799D01*
X56799Y50800D01*
Y51799D01*
X55799Y52799D01*
X52800D01*
X55799D01*
X56799Y53799D01*
Y54798D01*
X55799Y55798D01*
X52800D01*
X58798Y49800D02*
Y55798D01*
X61797D01*
X62797Y54798D01*
Y52799D01*
X61797Y51799D01*
X58798D01*
X74793Y54798D02*
X73793Y55798D01*
X71794D01*
X70794Y54798D01*
Y50800D01*
X71794Y49800D01*
X73793D01*
X74793Y50800D01*
X80791Y49800D02*
X76792D01*
X80791Y53799D01*
Y54798D01*
X79791Y55798D01*
X77792D01*
X76792Y54798D01*
X128800Y55798D02*
Y49800D01*
X131799D01*
X132799Y50800D01*
Y51799D01*
X131799Y52799D01*
X128800D01*
X131799D01*
X132799Y53799D01*
Y54798D01*
X131799Y55798D01*
X128800D01*
X134798Y49800D02*
Y55798D01*
X137797D01*
X138797Y54798D01*
Y52799D01*
X137797Y51799D01*
X134798D01*
X150793Y54798D02*
X149793Y55798D01*
X147794D01*
X146794Y54798D01*
Y50800D01*
X147794Y49800D01*
X149793D01*
X150793Y50800D01*
X152792Y49800D02*
X154792D01*
X153792D01*
Y55798D01*
X152792Y54798D01*
M02*
