G04*
G04 #@! TF.GenerationSoftware,Altium Limited,Altium Designer,21.5.1 (32)*
G04*
G04 Layer_Color=16711935*
%FSLAX25Y25*%
%MOIN*%
G70*
G04*
G04 #@! TF.SameCoordinates,D1CED41D-7284-4930-815C-7774E47D36BB*
G04*
G04*
G04 #@! TF.FilePolarity,Positive*
G04*
G01*
G75*
%ADD10C,0.00787*%
%ADD12C,0.00500*%
%ADD37C,0.00394*%
D10*
X307323Y39992D02*
G03*
X307323Y39992I-394J0D01*
G01*
X211744Y34169D02*
Y42831D01*
X217256D01*
Y34169D02*
Y42831D01*
X211744Y34169D02*
X217256D01*
X199244Y161169D02*
Y169831D01*
X204756D01*
Y161169D02*
Y169831D01*
X199244Y161169D02*
X204756D01*
X26744Y176669D02*
Y185331D01*
X32256D01*
Y176669D02*
Y185331D01*
X26744Y176669D02*
X32256D01*
X103244Y98669D02*
Y107331D01*
X108756D01*
Y98669D02*
Y107331D01*
X103244Y98669D02*
X108756D01*
X64244D02*
Y107331D01*
X69756D01*
Y98669D02*
Y107331D01*
X64244Y98669D02*
X69756D01*
X23563Y98539D02*
Y103461D01*
X31437D01*
Y98539D02*
Y103461D01*
X23563Y98539D02*
X31437D01*
X288854Y282823D02*
X308146D01*
Y298177D01*
X288854D02*
X308146D01*
X288854Y282823D02*
Y298177D01*
X204244Y196252D02*
X214756D01*
Y217748D01*
X204244D02*
X214756D01*
X204244Y196252D02*
Y217748D01*
X187244Y196252D02*
X197756D01*
Y217748D01*
X187244D02*
X197756D01*
X187244Y196252D02*
Y217748D01*
X169744Y196252D02*
X180256D01*
Y217748D01*
X169744D02*
X180256D01*
X169744Y196252D02*
Y217748D01*
X253744Y242669D02*
Y251331D01*
X259256D01*
Y242669D02*
Y251331D01*
X253744Y242669D02*
X259256D01*
X236244Y232752D02*
X246756D01*
Y254248D01*
X236244D02*
X246756D01*
X236244Y232752D02*
Y254248D01*
X194744Y24252D02*
X205256D01*
Y45748D01*
X194744D02*
X205256D01*
X194744Y24252D02*
Y45748D01*
X161744Y36169D02*
Y44831D01*
X167256D01*
Y36169D02*
Y44831D01*
X161744Y36169D02*
X167256D01*
X88063Y36039D02*
Y40961D01*
X95937D01*
Y36039D02*
Y40961D01*
X88063Y36039D02*
X95937D01*
X17744Y36169D02*
Y44831D01*
X23256D01*
Y36169D02*
Y44831D01*
X17744Y36169D02*
X23256D01*
X209244Y98669D02*
Y107331D01*
X214756D01*
Y98669D02*
Y107331D01*
X209244Y98669D02*
X214756D01*
X192244Y86752D02*
X202756D01*
Y108248D01*
X192244D02*
X202756D01*
X192244Y86752D02*
Y108248D01*
X159244Y98669D02*
Y107331D01*
X164756D01*
Y98669D02*
Y107331D01*
X159244Y98669D02*
X164756D01*
X130244D02*
Y107331D01*
X135756D01*
Y98669D02*
Y107331D01*
X130244Y98669D02*
X135756D01*
X240563Y161039D02*
Y165961D01*
X248437D01*
Y161039D02*
Y165961D01*
X240563Y161039D02*
X248437D01*
X158563D02*
Y165961D01*
X166437D01*
Y161039D02*
Y165961D01*
X158563Y161039D02*
X166437D01*
X130744Y176669D02*
Y185331D01*
X136256D01*
Y176669D02*
Y185331D01*
X130744Y176669D02*
X136256D01*
X113744Y164752D02*
X124256D01*
Y186248D01*
X113744D02*
X124256D01*
X113744Y164752D02*
Y186248D01*
D12*
X303780Y15189D02*
Y38811D01*
X246693Y15189D02*
X303780D01*
X246693D02*
Y38811D01*
X303780D01*
Y17157D02*
X313622D01*
Y36843D01*
X303780D02*
X313622D01*
X30669Y306075D02*
Y308496D01*
X39331Y306075D02*
Y308496D01*
X30669D02*
X39331D01*
Y220504D02*
Y222925D01*
X30669Y220504D02*
X39331D01*
X30669D02*
Y222925D01*
X5000Y223004D02*
X65000D01*
Y305996D01*
X5000D02*
X65000D01*
X5000Y223004D02*
Y305996D01*
X107831Y220004D02*
Y222425D01*
X99169Y220004D02*
Y222425D01*
Y220004D02*
X107831D01*
X99169Y305575D02*
Y307996D01*
X107831D01*
Y305575D02*
Y307996D01*
X73500Y305496D02*
X133500D01*
X73500Y222504D02*
Y305496D01*
Y222504D02*
X133500D01*
Y305496D01*
D37*
X286354Y158650D02*
Y167350D01*
X280646Y158650D02*
Y167350D01*
X286354D01*
X280646Y158650D02*
X286354D01*
X220650Y295646D02*
Y301354D01*
X229350Y295646D02*
Y301354D01*
X220650D02*
X229350D01*
X220650Y295646D02*
X229350D01*
X198150D02*
Y301354D01*
X206850Y295646D02*
Y301354D01*
X198150D02*
X206850D01*
X198150Y295646D02*
X206850D01*
X175650D02*
Y301354D01*
X184350Y295646D02*
Y301354D01*
X175650D02*
X184350D01*
X175650Y295646D02*
X184350D01*
X217650Y247146D02*
Y252854D01*
X226350Y247146D02*
Y252854D01*
X217650D02*
X226350D01*
X217650Y247146D02*
X226350D01*
X195150D02*
Y252854D01*
X203850Y247146D02*
Y252854D01*
X195150D02*
X203850D01*
X195150Y247146D02*
X203850D01*
X172650D02*
Y252854D01*
X181350Y247146D02*
Y252854D01*
X172650D02*
X181350D01*
X172650Y247146D02*
X181350D01*
X130146Y33650D02*
X135854D01*
X130146Y42350D02*
X135854D01*
X130146Y33650D02*
Y42350D01*
X135854Y33650D02*
Y42350D01*
X54146Y33650D02*
X59854D01*
X54146Y42350D02*
X59854D01*
X54146Y33650D02*
Y42350D01*
X59854Y33650D02*
Y42350D01*
X86146Y174150D02*
X91854D01*
X86146Y182850D02*
X91854D01*
X86146Y174150D02*
Y182850D01*
X91854Y174150D02*
Y182850D01*
X57146Y174150D02*
X62854D01*
X57146Y182850D02*
X62854D01*
X57146Y174150D02*
Y182850D01*
X62854Y174150D02*
Y182850D01*
M02*
