G04*
G04 #@! TF.GenerationSoftware,Altium Limited,Altium Designer,21.5.1 (32)*
G04*
G04 Layer_Color=16711935*
%FSLAX25Y25*%
%MOIN*%
G70*
G04*
G04 #@! TF.SameCoordinates,D1CED41D-7284-4930-815C-7774E47D36BB*
G04*
G04*
G04 #@! TF.FilePolarity,Negative*
G04*
G01*
G75*
%ADD29C,0.07493*%
%ADD30C,0.12611*%
%ADD31C,0.06181*%
%ADD32R,0.06181X0.06181*%
%ADD33C,0.05800*%
D29*
X290000Y27000D02*
D03*
X262441D02*
D03*
D30*
X35000Y307020D02*
D03*
Y221980D02*
D03*
X103500Y221480D02*
D03*
Y306520D02*
D03*
D31*
X209500Y212000D02*
D03*
X192500D02*
D03*
X175000D02*
D03*
X241500Y248500D02*
D03*
X200000Y40000D02*
D03*
X197500Y102500D02*
D03*
X119000Y180500D02*
D03*
D32*
X209500Y202000D02*
D03*
X192500D02*
D03*
X175000D02*
D03*
X241500Y238500D02*
D03*
X200000Y30000D02*
D03*
X197500Y92500D02*
D03*
X119000Y170500D02*
D03*
D33*
X140300Y182400D02*
D03*
X83300Y99161D02*
D03*
X146800Y130900D02*
D03*
X90500Y60300D02*
D03*
X297800Y113700D02*
D03*
X28300Y125900D02*
D03*
X74400Y116800D02*
D03*
X172000Y165000D02*
D03*
X94559Y67218D02*
D03*
X147500Y104600D02*
D03*
X264200Y197900D02*
D03*
M02*
