G04*
G04 #@! TF.GenerationSoftware,Altium Limited,Altium Designer,21.5.1 (32)*
G04*
G04 Layer_Color=8421504*
%FSLAX25Y25*%
%MOIN*%
G70*
G04*
G04 #@! TF.SameCoordinates,D1CED41D-7284-4930-815C-7774E47D36BB*
G04*
G04*
G04 #@! TF.FilePolarity,Positive*
G04*
G01*
G75*
%ADD14R,0.06102X0.06102*%
%ADD15R,0.08661X0.11024*%
%ADD16R,0.11024X0.11024*%
%ADD17R,0.05709X0.03740*%
%ADD18R,0.15590X0.15590*%
%ADD19R,0.01322X0.04583*%
G04:AMPARAMS|DCode=20|XSize=45.83mil|YSize=13.22mil|CornerRadius=6.61mil|HoleSize=0mil|Usage=FLASHONLY|Rotation=90.000|XOffset=0mil|YOffset=0mil|HoleType=Round|Shape=RoundedRectangle|*
%AMROUNDEDRECTD20*
21,1,0.04583,0.00000,0,0,90.0*
21,1,0.03260,0.01322,0,0,90.0*
1,1,0.01322,0.00000,0.01630*
1,1,0.01322,0.00000,-0.01630*
1,1,0.01322,0.00000,-0.01630*
1,1,0.01322,0.00000,0.01630*
%
%ADD20ROUNDEDRECTD20*%
G04:AMPARAMS|DCode=21|XSize=97.4mil|YSize=24.49mil|CornerRadius=12.25mil|HoleSize=0mil|Usage=FLASHONLY|Rotation=90.000|XOffset=0mil|YOffset=0mil|HoleType=Round|Shape=RoundedRectangle|*
%AMROUNDEDRECTD21*
21,1,0.09740,0.00000,0,0,90.0*
21,1,0.07291,0.02449,0,0,90.0*
1,1,0.02449,0.00000,0.03646*
1,1,0.02449,0.00000,-0.03646*
1,1,0.02449,0.00000,-0.03646*
1,1,0.02449,0.00000,0.03646*
%
%ADD21ROUNDEDRECTD21*%
%ADD22R,0.02449X0.09740*%
%ADD23R,0.06102X0.06102*%
D14*
X283500Y166543D02*
D03*
Y159457D02*
D03*
X133000Y34457D02*
D03*
Y41543D02*
D03*
X57000Y34457D02*
D03*
Y41543D02*
D03*
X89000Y174957D02*
D03*
Y182043D02*
D03*
X60000Y174957D02*
D03*
Y182043D02*
D03*
D15*
X286457Y12433D02*
D03*
X294331Y41567D02*
D03*
D16*
X257323D02*
D03*
D17*
X214500Y34661D02*
D03*
Y42339D02*
D03*
X202000Y161661D02*
D03*
Y169339D02*
D03*
X29500Y177161D02*
D03*
Y184839D02*
D03*
X106000Y99161D02*
D03*
Y106839D02*
D03*
X67000Y99161D02*
D03*
Y106839D02*
D03*
X256500Y243161D02*
D03*
Y250839D02*
D03*
X164500Y36661D02*
D03*
Y44339D02*
D03*
X20500Y36661D02*
D03*
Y44339D02*
D03*
X212000Y99161D02*
D03*
Y106839D02*
D03*
X162000Y99161D02*
D03*
Y106839D02*
D03*
X133000Y99161D02*
D03*
Y106839D02*
D03*
X133500Y177161D02*
D03*
Y184839D02*
D03*
D18*
X35000Y264500D02*
D03*
X103500Y264000D02*
D03*
D19*
X24941Y97968D02*
D03*
X89441Y35468D02*
D03*
X241941Y160468D02*
D03*
X159941D02*
D03*
D20*
X27500Y97968D02*
D03*
X30059D02*
D03*
Y104032D02*
D03*
X24941D02*
D03*
X92000Y35468D02*
D03*
X94559D02*
D03*
Y41532D02*
D03*
X89441D02*
D03*
X244500Y160468D02*
D03*
X247059D02*
D03*
Y166532D02*
D03*
X241941D02*
D03*
X162500Y160468D02*
D03*
X165059D02*
D03*
Y166532D02*
D03*
X159941D02*
D03*
D21*
X291000Y300012D02*
D03*
X296000D02*
D03*
X301000D02*
D03*
X306000D02*
D03*
Y280988D02*
D03*
X301000D02*
D03*
X296000D02*
D03*
D22*
X291000D02*
D03*
D23*
X221457Y298500D02*
D03*
X228543D02*
D03*
X198957D02*
D03*
X206043D02*
D03*
X176457D02*
D03*
X183543D02*
D03*
X218457Y250000D02*
D03*
X225543D02*
D03*
X195957D02*
D03*
X203043D02*
D03*
X173457D02*
D03*
X180543D02*
D03*
M02*
