M48
;Layer_Color=9474304
;FILE_FORMAT=2:5
INCH,LZ
;TYPE=PLATED
T1F00S00C0.02800
T2F00S00C0.04016
T3F00S00C0.07874
;TYPE=NON_PLATED
T4F00S00C0.06693
%
T01
X02978Y01137
X02642Y01979
X0172Y0165
X01403Y01824
X01468Y01309
X01475Y01046
X00833Y0099161
X00744Y01168
X0094559Y0067218
X00905Y00603
X00283Y01259
T02
X02Y003
Y004
X01975Y00925
Y01025
X01925Y0202
Y0212
X02095
Y0202
X0175
Y0212
X0119Y01805
Y01705
X02415Y02385
Y02485
T03
X0035Y022198
Y030702
X01035Y030652
Y022148
T04
X0262441Y0027
X029
M30
